HIERARCHY
ROOT Hips
{
  OFFSET 90.7885 88.945 -76.2838
  CHANNELS 6 Xposition Yposition Zposition Zrotation Xrotation Yrotation
  JOINT LeftUpLeg
  {
    OFFSET 8.64259 1.95398 -2.38835
    CHANNELS 3 Zrotation Xrotation Yrotation
    JOINT LeftLeg
    {
      OFFSET 43.7702 0 0
      CHANNELS 3 Zrotation Xrotation Yrotation
      JOINT LeftFoot
      {
        OFFSET 40.6238 0 0
        CHANNELS 3 Zrotation Xrotation Yrotation
        JOINT LeftToeBase
        {
          OFFSET 12.7242 0 0
          CHANNELS 3 Zrotation Xrotation Yrotation
          End Site
          {
            OFFSET 0 0 0
          }
        }
      }
    }
  }
  JOINT RightUpLeg
  {
    OFFSET -8.2249 1.95398 -2.59336
    CHANNELS 3 Zrotation Xrotation Yrotation
    JOINT RightLeg
    {
      OFFSET 43.5653 0 0
      CHANNELS 3 Zrotation Xrotation Yrotation
      JOINT RightFoot
      {
        OFFSET 40.6238 0 0
        CHANNELS 3 Zrotation Xrotation Yrotation
        JOINT RightToeBase
        {
          OFFSET 12.7242 0 0
          CHANNELS 3 Zrotation Xrotation Yrotation
          End Site
          {
            OFFSET 0 0 0
          }
        }
      }
    }
  }
  JOINT Spine
  {
    OFFSET 0.165834 0.87714 6.61349
    CHANNELS 3 Zrotation Xrotation Yrotation
    JOINT Spine1
    {
      OFFSET 7.38963 1.71661e-005 0
      CHANNELS 3 Zrotation Xrotation Yrotation
      JOINT Spine2
      {
        OFFSET 11.9445 1.14441e-005 0
        CHANNELS 3 Zrotation Xrotation Yrotation
        JOINT Spine3
        {
          OFFSET 14.7254 4.19617e-005 0
          CHANNELS 3 Zrotation Xrotation Yrotation
          JOINT Spine4
          {
            OFFSET 10.9679 0 0
            CHANNELS 3 Zrotation Xrotation Yrotation
            JOINT RightShoulder
            {
              OFFSET 2.46616 -1.6653 3.69651
              CHANNELS 3 Zrotation Xrotation Yrotation
              JOINT RightArm
              {
                OFFSET 13.0012 0 0
                CHANNELS 3 Zrotation Xrotation Yrotation
                JOINT RightForeArm
                {
                  OFFSET 28.7848 1.52588e-005 0
                  CHANNELS 3 Zrotation Xrotation Yrotation
                  JOINT RightHand
                  {
                    OFFSET 26.5688 1.52588e-005 0
                    CHANNELS 3 Zrotation Xrotation Yrotation
                    End Site
                    {
                      OFFSET 0 0 0
                    }
                  }
                }
              }
            }
            JOINT LeftShoulder
            {
              OFFSET 2.38034 -1.29275 -3.7523
              CHANNELS 3 Zrotation Xrotation Yrotation
              JOINT LeftArm
              {
                OFFSET 16.3182 6.10352e-005 0
                CHANNELS 3 Zrotation Xrotation Yrotation
                JOINT LeftForeArm
                {
                  OFFSET 27.0901 0 0
                  CHANNELS 3 Zrotation Xrotation Yrotation
                  JOINT LeftHand
                  {
                    OFFSET 24.5451 1.52588e-005 0
                    CHANNELS 3 Zrotation Xrotation Yrotation
                    End Site
                    {
                      OFFSET 0 0 0
                    }
                  }
                }
              }
            }
            JOINT Neck
            {
              OFFSET 5.0226 -0.0266342 0
              CHANNELS 3 Zrotation Xrotation Yrotation
              JOINT Head
              {
                OFFSET 6.69363 2.86102e-005 0
                CHANNELS 3 Zrotation Xrotation Yrotation
                End Site
                {
                  OFFSET 0 0 0
                }
              }
            }
          }
        }
      }
    }
  }
}
MOTION
Frames:	17
Frame Time:	0.0416667
-266.382 87.4683 -232.524 101.812 -44.7101 97.4614 -174.998 39.3803 87.8986 -39.8369 3.3704 -3.12282 65.6232 3.4766 3.65604 26.0533 3.78994 -4.79543 171.59 -6.31959 88.2934 -50.8926 -17.7525 -2.31038 90.5202 -15.953 -4.412 30.1633 -2.80475 6.51878 1.26326 8.23984 -90.493 10.4066 2.29067 -1.18037 -1.26298 2.23651 -1.28008 -23.8134 2.53946 -0.436999 -3.8008 2.53947 -0.436993 90.1704 -24.2999 -108.778 23.7837 3.32533 5.66298 -3.62821 -5.81339 -88.2645 -41.1636 13.7522 -41.4537 -87.1297 -49.7064 82.9824 -19.6115 23.2215 2.93315 -16.9024 -11.5479 -94.1099 -3.13337 -0.0394289 -12.053 10.8068 -3.75032 0.0661605 -10.5864 -3.62142 -0.911518 
-259.18 89.8414 -224.641 104.209 -42.6379 99.292 -177.345 29.4924 88.0011 -16.7279 6.85303 -2.3238 60.1605 1.36552 0.469454 27.4386 1.25558 -1.68366 170.54 -15.9881 87.797 -44.0459 -19.261 -2.66576 74.0173 -7.35127 -5.92729 39.4767 -5.17948 13.4337 1.47153 8.23243 -90.5056 10.4249 2.69977 -1.24294 -1.244 2.64246 -1.36063 -23.8007 2.94842 -0.373492 -3.78802 2.94841 -0.373489 90.1174 -23.5112 -109.255 27.1357 1.0557 6.70579 -3.12084 -3.90399 -84.9648 -39.6598 11.5089 -36.7792 -87.666 -48.391 81.9374 -19.8563 21.8903 5.31688 -15.9812 -11.5522 -93.4306 0.525138 -0.183535 -8.89071 5.60194 -5.70017 -2.57232 -9.75113 -5.11512 -0.472314 
-252.486 90.8477 -216.817 102.688 -42.1991 99.1576 -178.692 25.3927 88.6132 -6.51264 5.99614 -0.988148 56.3541 0.415281 -2.08338 24.6679 -1.34812 2.52291 174.073 -17.8986 91.1455 -45.6445 -22.1394 -4.48521 62.6953 -1.12867 1.65588 26.3619 -0.922958 2.31598 1.67784 7.80248 -90.5194 11.2899 3.09749 -1.33609 -0.378172 3.0357 -1.47122 -22.9424 3.35571 -0.342457 -2.92974 3.35571 -0.342465 89.9128 -23.2828 -109.811 29.2668 -1.05376 8.56895 -1.85854 -2.69907 -81.4544 -30.8879 7.21405 -30.7419 -87.6521 -45.5442 81.4261 -22.5906 23.4219 7.84313 -18.6843 -11.8499 -93.5704 3.93459 -0.240784 -7.08161 -2.41543 -6.18901 -5.91444 -6.66304 -5.42123 -0.86144 
-245.894 89.9214 -209.79 102.175 -43.9725 99.9204 -176.758 27.8396 89.8935 -17.1796 7.77998 -2.13053 57.2404 0.107072 -3.58974 26.1279 -1.81047 3.00554 176.084 -15.2861 91.6202 -54.6436 -23.9716 -5.05866 58.6462 0.600247 -1.55541 19.625 -0.888741 3.56037 1.95158 7.59812 -90.5815 11.7055 3.6089 -1.53737 0.0383993 3.53777 -1.69485 -22.5358 3.90389 -0.380204 -2.52313 3.90387 -0.380207 90.5809 -22.9461 -108.496 31.3622 -2.84411 9.92913 -6.4856 -4.85947 -82.8978 -15.6747 2.63446 -26.4954 -87.8595 -45.0322 80.9992 -22.375 24.1914 8.86924 -19.0922 -11.9777 -94.17 2.51059 -0.212638 -7.24897 -3.55062 -6.71786 -7.55105 -7.37235 -5.87899 0.244306 
-239.212 88.798 -203.123 105.357 -45.2797 102.297 -174.608 29.104 90.0018 -30.6646 16.1379 -3.71934 50.1752 -4.0283 2.59108 26.0736 2.7568 -3.36981 174.501 -13.6154 88.8653 -63.6551 -11.7701 -4.00296 63.398 -1.95232 -2.20743 15.8483 -1.3494 4.83532 1.83309 7.78744 -90.6103 11.3244 3.36351 -1.55091 -0.3433 3.29197 -1.69755 -22.9123 3.67391 -0.467154 -2.89961 3.67394 -0.467156 90.6812 -22.7887 -108.348 32.611 -3.51089 8.17643 -5.33423 -2.70552 -82.3268 -8.48468 1.34466 -26.1742 -88.321 -46.9641 80.6575 -20.1118 22.2579 10.6199 -19.0866 -11.0292 -95.4001 2.47588 -0.18151 -6.51873 -2.2046 -5.49241 -6.88332 -8.32017 -4.69761 1.14994 
-233.776 87.3184 -197.591 107.962 -44.7727 102.137 -171.911 31.4414 86.9962 -48.8969 18.9304 -4.13501 64.7328 2.57842 6.93823 4.79802 0.49498 2.85415 172.039 -7.71552 84.575 -74.955 0.601621 -2.84821 71.4003 -6.04313 -1.05217 16.0467 -0.3758 3.09773 1.31739 8.01865 -90.301 10.8498 2.48422 -0.828045 -0.819011 2.44535 -0.936638 -23.3737 2.61817 -0.0426485 -3.36108 2.61817 -0.042646 90.138 -25.3164 -108.401 32.2851 -3.54998 7.11462 -7.1549 -3.49961 -83.7456 -10.7903 1.33961 -22.6976 -88.2489 -47.8653 80.9448 -18.4543 22.4341 10.087 -18.162 -11.7159 -94.2405 -1.33305 -0.1395 -9.17155 -0.984564 -3.9263 -7.89053 -8.69133 -3.0275 2.78287 
-228.151 85.5272 -192.865 113.36 -42.4584 99.4024 -170.702 26.4965 79.692 -58.3604 15.9573 -4.30158 68.9913 4.88522 8.57277 15.5454 2.10156 -0.339725 171.229 -0.849652 77.5238 -86.9867 1.57309 -3.38027 78.5297 -9.63175 -2.52268 13.1213 -0.610382 3.8156 0.562307 8.74903 -89.5361 9.37216 1.32918 0.831291 -2.29839 1.36447 0.771986 -24.8338 1.01786 1.19229 -4.8212 1.01787 1.19229 90.3294 -27.6424 -107.014 32.4572 -2.27784 6.32703 -7.75391 -3.096 -84.6826 -8.03428 0.922827 -23.3534 -88.3943 -48.5304 80.8507 -14.526 23.0454 3.49957 -19.9189 -12.7051 -91.3638 -1.99493 -0.10981 -10.3883 3.07566 -2.98887 -8.77875 -11.1784 -1.71105 2.7454 
-222.819 84.2603 -188.313 117.307 -39.936 98.4999 -171.527 20.8137 76.1439 -65.4298 13.767 -3.9609 76.0914 8.49286 8.27641 16.8561 0.545212 1.22385 173.774 7.5409 73.6777 -94.1407 -2.53374 -3.47097 81.0161 -11.2942 -4.83788 13.7097 -1.3549 5.05129 -0.268573 9.30771 -89.0958 8.25502 -0.138109 1.79168 -3.41717 -0.0591473 1.79601 -25.9435 -0.670141 1.66741 -5.93082 -0.670136 1.6674 90.6235 -27.9767 -106.282 33.4738 -1.71397 5.69734 -3.84913 -2.51312 -84.6941 -10.9807 1.62417 -23.0956 -89.0913 -47.5171 79.5792 -13.333 20.9866 -1.55244 -19.2464 -13.182 -88.1973 -2.85448 -0.0646155 -11.1234 4.77574 -1.45672 -10.0949 -10.9943 0.112642 3.56709 
-218.781 83.126 -183.427 112.679 -47.7792 98.9177 -166.46 23.0844 80.4521 -71.0704 11.6721 -5.09518 83.935 11.8401 6.29121 18.838 0.622241 0.829935 -176.346 23.9343 78.7751 -94.8423 1.64456 -3.66466 84.7309 -12.9712 -2.65548 12.6985 -1.22591 4.93481 -0.032622 8.81434 -89.3905 9.24258 0.208209 1.19238 -2.42889 0.260467 1.18205 -24.9597 -0.159759 1.19982 -4.94703 -0.159763 1.19982 90.4245 -28.1016 -106.641 33.1174 -1.16195 5.51537 -2.14455 -2.54183 -85.0978 -13.8411 1.94434 -21.1557 -89.5277 -47.446 78.8922 -10.9711 20.4744 -6.35707 -18.0257 -14.5628 -84.353 -6.9436 0.216259 -12.0454 2.46542 0.809035 -8.91332 -9.12676 2.01693 3.55888 
-214.309 82.9397 -178.223 111.309 -51.4673 101.184 -164.373 20.1849 84.8374 -73.4813 8.38219 -5.27829 91.2008 14.0422 2.50561 20.0681 1.61595 -0.610438 -173.643 35.1364 83.583 -88.5224 1.9324 -3.80102 82.9107 -12.2849 -2.30352 12.7056 0.372898 2.27391 -0.168832 8.67173 -89.8178 9.52915 -0.254494 0.379169 -2.14188 -0.237517 0.389987 -24.6766 -0.356682 0.285154 -4.66395 -0.356649 0.285154 90.7903 -27.6436 -106.069 32.966 -1.1338 5.76111 -2.12667 -2.75794 -86.7775 -12.128 1.65159 -20.703 -89.3814 -47.2327 79.0693 -7.09214 20.9996 -11.508 -20.3566 -15.6159 -81.6152 -7.56644 0.322218 -14.0774 1.47517 2.66998 -6.41358 -10.9612 3.38104 3.09679 
-209.266 83.3886 -173.372 112.807 -51.6568 104.024 -165.513 13.0594 86.5024 -72.4077 3.17817 -4.86251 96.9468 15.1626 -1.53778 22.0247 1.49731 -0.829033 -176.207 40.0995 86.6154 -76.6799 -0.646933 -3.55917 74.6333 -8.3318 -4.19878 14.4156 -0.185269 2.97332 -0.613724 8.84444 -90.1417 9.18468 -1.28734 -0.186415 -2.48563 -1.29428 -0.129575 -25.0252 -1.17181 -0.564752 -5.01252 -1.1718 -0.564755 91.2401 -26.9483 -105.405 32.9039 -1.82805 6.2509 -3.44068 -2.88571 -87.2855 -17.6829 2.06953 -18.6788 -89.7747 -45.2858 78.0222 -5.16589 21.2314 -16.0751 -15.7235 -15.8139 -76.8671 -13.3157 1.73352 -21.0024 -0.381364 3.74796 -6.07234 -11.1221 4.18424 4.71781 
-204.624 84.204 -168.207 115.27 -52.1798 109.689 -165.718 6.07712 91.1515 -70.1408 1.28537 -4.05428 98.596 15.1515 -3.04185 27.2979 -0.289977 0.712243 178.572 39.3226 93.0805 -58.2566 -0.0413612 -1.37706 63.9614 -3.11935 -2.27281 15.8382 -0.875162 3.99522 -0.918205 9.19696 -90.811 8.4676 -2.19052 -1.47196 -3.20219 -2.25317 -1.37411 -25.7403 -1.64696 -2.06221 -5.72768 -1.64694 -2.06221 92.05 -25.3644 -104.286 31.9573 -3.64809 5.02719 -4.60489 -4.30153 -87.6745 -22.2668 1.8635 -15.2483 -90.0464 -45.5023 77.6447 -0.650623 22.6657 -22.2433 -20.5659 -18.6734 -74.1984 -9.54027 0.978517 -19.4158 -1.29729 4.67624 -2.89396 -10.6737 4.68709 4.43661 
-199.185 84.9992 -163.168 115.797 -52.7312 111.292 -166.055 0.553571 92.154 -68.1323 2.09438 -3.61176 93.2203 12.6135 -3.62251 35.0498 -0.281854 -0.763844 174.842 34.4523 95.446 -37.2793 -4.95013 1.19674 56.9997 0.0398011 1.10146 17.6057 -0.964702 3.94338 -1.24172 9.46297 -91.2183 7.91335 -3.011 -2.24093 -3.75581 -3.10669 -2.10622 -26.2922 -2.19863 -3.04202 -6.27959 -2.19863 -3.04202 92.2475 -24.7258 -104.099 30.0366 -3.56945 3.87831 -1.76075 1.65853 -89.0985 -18.9168 1.44148 -12.9913 -90.0033 -44.1072 77.3784 2.15556 23.509 -29.2239 -21.4281 -20.3899 -71.4545 -13.915 1.4748 -19.7647 -1.79782 4.88088 -0.615177 -10.2351 4.61458 4.45129 
-193.054 85.0517 -158.231 113.978 -53.6678 107.995 -166.485 -2.94981 90.4899 -67.0083 5.83788 -3.97618 83.6836 9.53497 -0.75487 44.3679 2.05605 -7.62552 172.852 31.9318 94.4787 -25.3649 -6.15063 2.19866 56.5622 0.274436 1.28688 17.1464 -1.26729 4.5536 -1.55977 9.4291 -91.2811 7.97312 -3.67381 -2.32564 -3.69443 -3.77259 -2.16159 -26.2398 -2.80537 -3.32218 -6.22713 -2.80536 -3.32217 91.9022 -25.0745 -104.715 27.7258 -3.90278 3.69038 8.20533 0.499925 -85.0199 -26.1126 3.29667 -16.6379 -90.5838 -43.0864 76.1909 3.50626 20.374 -34.6231 -16.6101 -20.0237 -65.3092 -9.26034 0.847025 -19.8441 -5.43824 4.30058 0.555794 -7.30483 4.01351 4.89803 
-187.141 84.3119 -153.753 110.877 -54.8658 102.455 -166.097 -1.53448 86.7548 -70.6492 11.6851 -3.94405 70.8903 4.86188 2.39565 41.8758 2.57588 -8.00233 171.154 35.4403 91.9581 -31.5007 -1.9521 2.79975 56.9216 0.343523 -0.164839 15.9296 -0.281396 2.95358 -1.67895 9.20554 -91.1882 8.42415 -3.87474 -2.11137 -3.24245 -3.96391 -1.93864 -25.7956 -3.06128 -3.1785 -5.7829 -3.06129 -3.17851 91.6988 -26.4842 -104.619 25.8994 -0.879162 3.90758 2.58376 -0.652231 -85.2615 -24.2177 2.20106 -14.0686 -90.7275 -40.6358 75.2907 2.86489 18.0477 -40.483 -11.5469 -18.6818 -58.89 -8.66343 0.749612 -19.6177 -8.64872 3.14891 0.404834 -5.88433 2.97421 4.50004 
-181.931 82.2402 -150.059 108.483 -56.0864 97.3542 -163.68 3.73008 83.5631 -79.5341 15.7927 -2.83392 59.9311 0.219664 1.7826 31.5093 -1.00741 1.05222 170.697 44.88 88.5924 -48.0988 -9.20824 2.63133 58.4031 0.724093 -2.91275 0.859219 0.215448 3.92836 -1.66834 9.16772 -91.0854 8.50427 -3.80885 -1.90805 -3.16224 -3.88912 -1.73841 -25.7176 -3.05947 -2.9649 -5.70495 -3.05947 -2.96491 91.228 -27.317 -105.292 24.0352 5.00771 3.99043 2.16831 -3.54692 -84.1057 -26.9864 2.40004 -14.3043 -90.4907 -38.7227 75.1607 1.77267 14.7269 -47.8931 -6.65747 -16.4721 -52.5152 -9.63264 1.01055 -21.5405 -8.16549 1.71586 0.666318 -5.93783 1.56102 3.13447 
-177.443 79.2145 -146.912 109.659 -57.7985 97.6826 -159.328 11.7798 82.2928 -93.2048 14.6798 -0.31029 67.0553 3.26203 3.58518 31.8924 0.300673 -1.0535 172.677 50.7593 87.0318 -63.381 -9.7817 0.86419 64.26 -2.79356 -3.26734 5.10562 -0.973626 5.23226 -1.46192 9.57315 -91.1558 7.69185 -3.42132 -2.10371 -3.97606 -3.51058 -1.95101 -26.5211 -2.63116 -3.03468 -6.50848 -2.63116 -3.03469 89.1848 -28.837 -108.851 19.9025 12.8663 4.95693 4.13065 -5.73597 -84.2524 -26.6683 2.12549 -13.1085 -90.7589 -37.9313 74.4717 1.53185 11.1435 -55.0437 -5.9644 -16.5813 -48.3271 -11.196 1.35952 -22.9991 -5.58312 0.14173 0.0109058 -4.55972 0.096679 1.93177 
